<svg xmlns="http://www.w3.org/2000/svg" width="55" height="55" viewBox="0 0 55 55">
  <g id="gmail" transform="translate(-250 -679)">
    <g id="Ellipse_3" data-name="Ellipse 3" transform="translate(250 679)" fill="#eee6ff" stroke="#49269a" stroke-width="1">
      <circle cx="27.5" cy="27.5" r="27.5" stroke="none"/>
      <circle cx="27.5" cy="27.5" r="27" fill="none"/>
    </g>
    <g id="Group_242" data-name="Group 242" transform="translate(263 692)">
      <path id="Path_236" data-name="Path 236" d="M0,0H30V30H0Z" fill="none"/>
      <path id="Path_237" data-name="Path 237" d="M3.39,9.163A13.063,13.063,0,0,1,15.061,2,12.573,12.573,0,0,1,23.8,5.386L20.055,9.115A7.077,7.077,0,0,0,15.061,7.17a7.831,7.831,0,0,0,0,15.66,7.879,7.879,0,0,0,4.423-1.241,5.979,5.979,0,0,0,2.607-3.923h-7.03V12.637h12.3A14.88,14.88,0,0,1,27.6,15.3a12.641,12.641,0,0,1-3.895,9.555A12.5,12.5,0,0,1,15.061,28,12.991,12.991,0,0,1,3.39,9.163Z" transform="translate(0 0)" fill="#49269a"/>
    </g>
  </g>
</svg>
