<svg xmlns="http://www.w3.org/2000/svg" width="55" height="55" viewBox="0 0 55 55">
  <g id="tw" transform="translate(-179 -679)">
    <g id="Ellipse_2" data-name="Ellipse 2" transform="translate(179 679)" fill="#eee6ff" stroke="#49269a" stroke-width="1">
      <circle cx="27.5" cy="27.5" r="27.5" stroke="none"/>
      <circle cx="27.5" cy="27.5" r="27" fill="none"/>
    </g>
    <g id="Group_350" data-name="Group 350" transform="translate(192 692)">
      <path id="Path_248" data-name="Path 248" d="M0,0H30V30H0Z" fill="none"/>
      <path id="Path_249" data-name="Path 249" d="M8.829,23.442l.941.55a10.4,10.4,0,1,0-3.761-3.761l.549.941-.849,3.121,3.12-.852ZM2.005,28l1.758-6.458a12.994,12.994,0,1,1,4.7,4.7Zm8.3-19.1a4.4,4.4,0,0,1,.524-.005c.07.005.14.013.211.021a.655.655,0,0,1,.511.324q.581,1.318,1.128,2.652a.789.789,0,0,1-.121.7,5.694,5.694,0,0,1-.342.484c-.147.188-.463.534-.463.534a.417.417,0,0,0-.079.345,1.15,1.15,0,0,0,.133.266l.077.124a8.235,8.235,0,0,0,1.326,1.648c.156.151.308.305.472.45a7.813,7.813,0,0,0,2.041,1.3l.007,0c.11.048.166.074.328.143a1.868,1.868,0,0,0,.248.086.455.455,0,0,0,.477-.169,15.181,15.181,0,0,1,1.035-1.214v0a.627.627,0,0,1,.491-.165.673.673,0,0,1,.23.052c.69.316,1.82.809,1.82.809l.757.339a.438.438,0,0,1,.247.345,2.509,2.509,0,0,1-.017.485,3.621,3.621,0,0,1-.244.953,1.5,1.5,0,0,1-.273.393,3.091,3.091,0,0,1-.429.374q-.08.06-.163.117-.243.154-.5.286a2.587,2.587,0,0,1-1.083.3,6.7,6.7,0,0,1-.723.018c-.01,0-.738-.113-.738-.113a12.282,12.282,0,0,1-4.992-2.66c-.294-.259-.566-.537-.844-.814A12.362,12.362,0,0,1,8.8,13.744a4.511,4.511,0,0,1-.43-1.838A3.548,3.548,0,0,1,9.1,9.722a3.075,3.075,0,0,1,.339-.4,1.655,1.655,0,0,1,.382-.3,1.249,1.249,0,0,1,.482-.13Z" transform="translate(0)" fill="#49269a"/>
    </g>
  </g>
</svg>
